<?xml version="1.0" encoding="utf-8"?>
<!-- Generator: Adobe Illustrator 22.0.0, SVG Export Plug-In . SVG Version: 6.00 Build 0)  -->
<svg version="1.1" id="Layer_1" xmlns="http://www.w3.org/2000/svg" xmlns:xlink="http://www.w3.org/1999/xlink" x="0px" y="0px"
	 viewBox="0 0 95.7 95.7" style="enable-background:new 0 0 95.7 95.7;" xml:space="preserve">
<style type="text/css">
	.st0{fill:#FFFFFF;}
</style>
<path class="st0" d="M48,0C21.5,0,0,21.5,0,48s21.5,48,48,48s48-21.5,48-48S74.5,0,48,0z M72.7,36.4L44.5,64.7
	c-0.9,0.9-2.2,1.5-3.5,1.5s-2.6-0.5-3.5-1.5L23.3,50.5c-2-2-2-5.1,0-7.1s5.1-2,7.1,0L41,54l24.7-24.7c2-2,5.1-2,7.1,0
	C74.7,31.3,74.7,34.4,72.7,36.4z"/>
</svg>
