<?xml version="1.0" encoding="utf-8"?>
<!-- Generator: Adobe Illustrator 22.0.0, SVG Export Plug-In . SVG Version: 6.00 Build 0)  -->
<svg version="1.1" id="Layer_1" xmlns="http://www.w3.org/2000/svg" xmlns:xlink="http://www.w3.org/1999/xlink" x="0px" y="0px"
	 viewBox="0 0 512 512" style="enable-background:new 0 0 512 512;" xml:space="preserve">
<style type="text/css">
	.st0{fill:#FFFFFF;}
</style>
<path class="st0" d="M337.9,256c0,45.3-36.6,81.9-81.9,81.9s-81.9-36.6-81.9-81.9s36.6-81.9,81.9-81.9S337.9,210.7,337.9,256z"/>
<g>
	<path class="st0" d="M499.3,72c-5.1-13.6-12.9-25.9-23.3-35.9c-10-10.4-22.3-18.3-35.9-23.3c-11-4.2-27.6-9.3-58-10.8
		C349.2,0.4,339.2,0,256,0c-83.4,0-93.2,0.2-126.1,1.9C99.6,3.4,83,8.5,72,12.7c-13.6,5.1-25.9,12.9-35.9,23.3
		C25.7,46.1,17.8,58.4,12.7,72c-4.2,11-9.3,27.6-10.8,58C0.4,162.8,0,172.6,0,256s0.4,93.2,1.9,126.1c1.5,30.4,6.4,46.9,10.8,58
		c5.1,13.6,12.9,25.9,23.3,35.9c10,10.4,22.3,18.3,35.9,23.3c11,4.2,27.6,9.3,58,10.8c32.9,1.5,42.7,1.9,126.1,1.9
		s93.2-0.2,126.1-1.9c30.4-1.5,46.9-6.4,58-10.8c27.2-10.4,48.8-32.1,59.2-59.2c4.2-11,9.3-27.6,10.8-58
		c1.5-32.9,1.9-42.9,1.9-126.1c0-83.4-0.2-93.2-1.9-126.1C508.6,99.6,503.5,83,499.3,72z M256,416.3c-88.5,0-160.3-71.7-160.3-160.3
		S167.5,95.7,256,95.7S416.3,167.5,416.3,256S344.5,416.3,256,416.3z M422.6,126.9c-20.6,0-37.4-16.8-37.4-37.4s16.8-37.4,37.4-37.4
		c20.6,0,37.4,16.8,37.4,37.4S443.2,126.9,422.6,126.9z"/>
</g>
</svg>
