<?xml version="1.0" encoding="utf-8"?>
<!-- Generator: Adobe Illustrator 22.0.0, SVG Export Plug-In . SVG Version: 6.00 Build 0)  -->
<svg version="1.1" id="Layer_1" xmlns="http://www.w3.org/2000/svg" xmlns:xlink="http://www.w3.org/1999/xlink" x="0px" y="0px"
	 viewBox="0 0 1506.3 433.7" style="enable-background:new 0 0 1506.3 433.7;" xml:space="preserve">
<style type="text/css">
	.st0{fill:#FFFFFF;}
	.st1{fill:#E958BD;}
</style>
<path class="st0" d="M372.2,87.6c-3.3-1.3-7-2-10.7-2c-11.6,0.2-22.1,7.2-26.6,17.9l-56.6,140l-56.6-140l-0.4-0.9
	c-0.2-0.4-0.4-0.7-0.6-0.9l-0.6-0.9c-0.2-0.4-0.6-0.9-0.7-1.3c-0.2-0.4-0.6-0.9-0.7-1.3s-0.4-0.6-0.6-0.7c-0.2-0.2-0.7-1.1-1.1-1.5
	l-0.7-0.9l-0.6-0.7c-0.4-0.4-0.9-0.9-1.5-1.3l-0.9-0.7c-0.6-0.4-0.9-0.7-1.5-1.1s-0.7-0.6-1.3-0.9l-0.7-0.6
	c-0.4-0.2-0.9-0.6-1.3-0.7l-1.3-0.6l-1.1-0.6c-0.6-0.2-1.1-0.4-1.7-0.6l-2.4-0.7c-0.6-0.2-1.3-0.4-2-0.4l-0.7-0.2l-1.5-0.2l-1.7-0.2
	h-3.1c-0.7,0-1.5,0.2-2.2,0.2c-0.6,0-0.9,0.2-1.5,0.2c-0.6,0-0.9,0.2-1.5,0.4l-1.1,0.4c-0.4,0-0.7,0.2-1.3,0.4
	c-0.6,0.2-1.1,0.4-1.7,0.6h-0.2l-1.3,0.6l-1.3,0.6l-0.9,0.6l-1.1,0.7l-1.1,0.7l-1.1,0.9c-0.4,0.4-0.7,0.6-1.1,0.9l-0.9,0.9
	c-0.4,0.4-0.7,0.7-0.9,0.9c-0.2,0.2-0.6,0.7-0.9,1.1c-0.4,0.4-0.6,0.7-0.9,1.1s-0.6,0.7-0.7,1.1l-0.2,0.2c-0.2,0.2-0.4,0.6-0.6,1.1
	c-0.2,0.6-0.4,0.6-0.6,1.1c-0.2,0.6-0.4,0.7-0.6,1.1l-0.6,1.1l-0.2,0.4L112,243.3L55.2,103.5l-0.2-0.4C50.4,92.8,40,86,28.6,85.8
	C12.9,85.8,0.2,98.5,0,114.2c0,3.5,0.7,6.8,1.8,10.1l83.4,206c6.1,14.8,22.7,21.8,37.4,15.7c7.2-3,12.7-8.7,15.7-15.7l56.6-140
	l56.6,140c6.1,14.8,22.7,21.8,37.4,15.7c7.2-3,12.7-8.7,15.7-15.7l83.2-205.7c1.3-3.3,2-7,2-10.7C390.1,102.4,382.9,92,372.2,87.6z"
	/>
<path class="st0" d="M515.2,85.2c-72.5,0.9-130.6,60.3-129.9,133c0.9,71.4,58.5,128.9,129.9,129.9h0.4c30.4,0,71.2-17,92.6-38.6
	c21.4-21.6,38.6-62.3,38.6-92.8C646.5,144.1,587.7,85.2,515.2,85.2z M589.2,216.6c0,41-33.2,74-74,74c-41,0-74.2-33.2-74.2-74
	s33.2-74.2,74.2-74.2l0,0C556,142.6,589.2,175.6,589.2,216.6L589.2,216.6z"/>
<path class="st0" d="M1185.7,0c-15.7,0-28.6,12.7-28.6,28.6l0,0v188.1c0,41.1-33.4,74.5-74.7,74.5c-41.1,0-74.5-33.4-74.5-74.5
	c0-41,26.2-74.3,67.1-74.3c12.2,0,17,1.3,24.2,5.2c4.2,2.2,8.9,3.3,13.5,3.5c15.9,0,28.6-12.7,28.6-28.6
	c-0.2-10.5-6.1-20.1-15.1-25.3c-15.1-8.1-30.3-11.8-51.1-11.8c-72.7,0-124.5,58.8-124.5,131.3c0.2,72.7,59.2,131.3,131.9,131.3
	s131.9-58.8,131.9-131.3V28.6C1214.5,12.7,1201.6,0,1185.7,0z"/>
<path class="st0" d="M798.5,85.2c-72.5,0.9-130.6,60.3-129.9,133c0.9,71.4,58.5,128.9,129.9,129.9h0.4c30.4,0,71.2-17,92.6-38.6
	c21.4-21.6,38.6-62.3,38.6-92.8C929.9,144.1,871,85.2,798.5,85.2z M872.7,216.6c0,41-33.2,74-74,74c-41,0-74-33.2-74-74
	s33.2-74.2,74-74.2l0,0C839.5,142.6,872.7,175.6,872.7,216.6z"/>
<circle class="st1" cx="798.5" cy="216.6" r="25.6"/>
<path class="st0" d="M1261.3,425.9c-9.6-3-20.3-10.5-20.3-24.9c0-14.9,12.2-24.9,26.2-24.9c4.1,0,7.9,0.7,11.6,2
	c7.2,2.2,14.8,3.5,22.3,3.5c19.2,0,29.3-7.6,40-28l2.2-5.5L1239,129.3c-2.2-4.6-3.5-9.4-3.7-14.4c0-17,13.8-29.5,31.9-29.5
	c16.6,0,25.5,9,31.4,23.1l75.6,175.2l70.3-175.2c5.3-12.5,14.4-23.1,31-23.1c17,0,30.8,12.5,30.8,28.4c-0.2,5-1.1,9.8-2.6,14.6
	L1401,359.7c-24,53.9-49.4,74-94.8,74C1287.9,433.5,1274.6,431.1,1261.3,425.9z"/>
</svg>
